<svg width="194" height="54" viewBox="0 0 194 54" fill="none" xmlns="http://www.w3.org/2000/svg">
<g filter="url(#filter0_d_101_64)">
<path d="M28.7899 35L24.5179 14.888H24.3259L20.0539 35H8.38988L0.661875 1.976H11.7019L15.4939 20.696H15.6859L19.4299 1.976H29.8939L33.8779 20.696H34.0699L37.6219 1.976H48.1819L40.4539 35H28.7899ZM63.1403 9.08C67.5883 9.08 71.0763 10.216 73.6042 12.488C76.1643 14.728 77.4443 18.008 77.4443 22.328C77.4443 26.648 76.1643 29.944 73.6042 32.216C71.0763 34.456 67.5883 35.576 63.1403 35.576C58.6923 35.576 55.2043 34.456 52.6763 32.216C50.1483 29.976 48.8843 26.68 48.8843 22.328C48.8843 17.976 50.1483 14.68 52.6763 12.44C55.2043 10.2 58.6923 9.08 63.1403 9.08ZM63.1403 15.56C60.0043 15.56 58.4363 17.368 58.4363 20.984V23.72C58.4363 27.304 60.0043 29.096 63.1403 29.096C66.3083 29.096 67.8923 27.304 67.8923 23.72V20.984C67.8923 17.368 66.3083 15.56 63.1403 15.56ZM97.4599 9.032C98.1959 9.032 98.8519 9.128 99.4279 9.32C100.004 9.48 100.292 9.576 100.292 9.608V17.624H97.2199C95.2359 17.624 93.7959 18.136 92.8999 19.16C92.0359 20.184 91.6039 21.704 91.6039 23.72V35H82.0519V9.656H89.8759L90.4999 13.496C91.0759 12.024 91.9879 10.92 93.2359 10.184C94.4839 9.416 95.8919 9.032 97.4599 9.032ZM122.667 9.656V16.136H117.291V25.784C117.291 26.936 117.483 27.784 117.867 28.328C118.251 28.84 118.955 29.096 119.979 29.096H122.667V34.712C121.899 34.968 120.907 35.176 119.691 35.336C118.475 35.496 117.419 35.576 116.523 35.576C113.707 35.576 111.531 35.064 109.995 34.04C108.491 33.016 107.739 31.272 107.739 28.808V16.136H104.187V9.656H108.123L110.187 1.976H117.291V9.656H122.667ZM136.651 12.296C137.675 11.272 138.875 10.488 140.251 9.944C141.627 9.368 143.067 9.08 144.571 9.08C147.515 9.08 149.723 9.896 151.195 11.528C152.667 13.16 153.403 15.512 153.403 18.584V35H143.851V19.736C143.851 18.648 143.563 17.784 142.987 17.144C142.443 16.472 141.659 16.136 140.635 16.136C139.451 16.136 138.491 16.52 137.755 17.288C137.019 18.056 136.651 19 136.651 20.12V35H127.099V0.199999H136.651V12.296ZM176.538 34.232C175.226 37.784 173.61 40.472 171.69 42.296C169.802 44.152 167.146 45.08 163.722 45.08C161.642 45.08 159.802 44.792 158.202 44.216V38.504H162.042C164.442 38.504 165.866 37.336 166.314 35L156.234 9.656H166.506L171.354 26.504H171.69L176.154 9.656H185.562L176.538 34.232Z" fill="white"/>
</g>
<defs>
<filter id="filter0_d_101_64" x="0.661865" y="0.200012" width="192.901" height="52.88" filterUnits="userSpaceOnUse" color-interpolation-filters="sRGB">
<feFlood flood-opacity="0" result="BackgroundImageFix"/>
<feColorMatrix in="SourceAlpha" type="matrix" values="0 0 0 0 0 0 0 0 0 0 0 0 0 0 0 0 0 0 127 0" result="hardAlpha"/>
<feOffset dx="4" dy="4"/>
<feGaussianBlur stdDeviation="2"/>
<feComposite in2="hardAlpha" operator="out"/>
<feColorMatrix type="matrix" values="0 0 0 0 1 0 0 0 0 0.66 0 0 0 0 0 0 0 0 1 0"/>
<feBlend mode="normal" in2="BackgroundImageFix" result="effect1_dropShadow_101_64"/>
<feBlend mode="normal" in="SourceGraphic" in2="effect1_dropShadow_101_64" result="shape"/>
</filter>
</defs>
</svg>
